<?xml version="1.0" encoding="UTF-8" standalone="no"?>
<svg
   xmlns:dc="http://purl.org/dc/elements/1.1/"
   xmlns:cc="http://creativecommons.org/ns#"
   xmlns:rdf="http://www.w3.org/1999/02/22-rdf-syntax-ns#"
   xmlns:svg="http://www.w3.org/2000/svg"
   xmlns="http://www.w3.org/2000/svg"
   xmlns:sodipodi="http://sodipodi.sourceforge.net/DTD/sodipodi-0.dtd"
   xmlns:inkscape="http://www.inkscape.org/namespaces/inkscape"
   version="1.0"
   x="0px"
   y="0px"
   viewBox="0 0 100 125"
   enable-background="new 0 0 100 100"
   xml:space="preserve"
   id="svg2"
   inkscape:version="0.91 r13725"
   sodipodi:docname="noun_1162066_cc.svg"><metadata
     id="metadata26"><rdf:RDF><cc:Work
         rdf:about=""><dc:format>image/svg+xml</dc:format><dc:type
           rdf:resource="http://purl.org/dc/dcmitype/StillImage" /></cc:Work></rdf:RDF></metadata><defs
     id="defs24" /><sodipodi:namedview
     pagecolor="#ffffff"
     bordercolor="#666666"
     borderopacity="1"
     objecttolerance="10"
     gridtolerance="10"
     guidetolerance="10"
     inkscape:pageopacity="0"
     inkscape:pageshadow="2"
     inkscape:window-width="640"
     inkscape:window-height="480"
     id="namedview22"
     showgrid="false"
     inkscape:zoom="1.888"
     inkscape:cx="50"
     inkscape:cy="62.5"
     inkscape:window-x="0"
     inkscape:window-y="0"
     inkscape:window-maximized="0"
     inkscape:current-layer="svg2" /><g
     id="g4"
     style="fill:#ffffff"><path
       d="M92,20H8c-2.209,0-4,1.791-4,4v52c0,2.209,1.791,4,4,4h84c2.209,0,4-1.791,4-4V24C96,21.791,94.209,20,92,20z M92,75   c0,0.552-0.448,1-1,1H9c-0.552,0-1-0.448-1-1V25c0-0.552,0.448-1,1-1h82c0.552,0,1,0.448,1,1V75z"
       id="path6"
       style="fill:#ffffff" /><path
       d="M86,38c-4.411,0-8-3.589-8-8c0-1.104-0.896-2-2-2H24c-1.104,0-2,0.896-2,2c0,4.411-3.589,8-8,8c-1.104,0-2,0.896-2,2v20   c0,1.104,0.896,2,2,2c4.411,0,8,3.589,8,8c0,1.104,0.896,2,2,2h52c1.104,0,2-0.896,2-2c0-4.411,3.589-8,8-8c1.104,0,2-0.896,2-2V40   C88,38.896,87.104,38,86,38z M84,58.167c-5.018,0.845-8.988,4.815-9.833,9.833H25.833c-0.845-5.018-4.815-8.988-9.833-9.833V41.833   c5.018-0.846,8.988-4.816,9.833-9.833h48.334c0.845,5.018,4.815,8.988,9.833,9.833V58.167z"
       id="path8"
       style="fill:#ffffff" /><path
       d="M50,33c-9.374,0-17,7.626-17,17s7.626,17,17,17s17-7.626,17-17S59.374,33,50,33z M50,63c-7.168,0-13-5.832-13-13   c0-7.168,5.832-13,13-13s13,5.832,13,13C63,57.168,57.168,63,50,63z"
       id="path10"
       style="fill:#ffffff" /><path
       d="M14,37c1.104,0,2-0.896,2-2v-3h3c1.104,0,2-0.896,2-2s-0.896-2-2-2h-5c-1.104,0-2,0.896-2,2v5C12,36.104,12.896,37,14,37z"
       id="path12"
       style="fill:#ffffff" /><path
       d="M86,28h-5c-1.104,0-2,0.896-2,2s0.896,2,2,2h3v3c0,1.104,0.896,2,2,2s2-0.896,2-2v-5C88,28.896,87.104,28,86,28z"
       id="path14"
       style="fill:#ffffff" /><path
       d="M86,63c-1.104,0-2,0.896-2,2v3h-3c-1.104,0-2,0.896-2,2s0.896,2,2,2h5c1.104,0,2-0.896,2-2v-5C88,63.896,87.104,63,86,63z"
       id="path16"
       style="fill:#ffffff" /><path
       d="M19,68h-3v-3c0-1.104-0.896-2-2-2s-2,0.896-2,2v5c0,1.104,0.896,2,2,2h5c1.104,0,2-0.896,2-2S20.104,68,19,68z"
       id="path18"
       style="fill:#ffffff" /><path
       d="M52,48h-4c-0.552,0-1-0.449-1-1s0.448-1,1-1h6c1.104,0,2-0.896,2-2s-0.896-2-2-2h-2v-2c0-1.104-0.896-2-2-2s-2,0.896-2,2v2   c-2.757,0-5,2.243-5,5s2.243,5,5,5h4c0.552,0,1,0.449,1,1c0,0.552-0.448,1-1,1h-6c-1.104,0-2,0.896-2,2s0.896,2,2,2h2v2   c0,1.104,0.896,2,2,2s2-0.896,2-2v-2c2.757,0,5-2.243,5-5S54.757,48,52,48z"
       id="path20"
       style="fill:#ffffff" /></g></svg>